<svg id="Layer_1" data-name="Layer 1" xmlns="http://www.w3.org/2000/svg" xmlns:xlink="http://www.w3.org/1999/xlink" viewBox="0 0 1922.41 835.87"><defs><style>.cls-1,.cls-2{stroke:#000;stroke-miterlimit:10;}.cls-1{opacity:0.75;fill:url(#linear-gradient);}.cls-2{fill:#fff;}.cls-3,.cls-4{fill:#3fa9f5;}.cls-4{font-size:63.66px;font-family:Corbel;}.cls-5{letter-spacing:-0.07em;}.cls-6{letter-spacing:-0.06em;}.cls-7{letter-spacing:0em;}.cls-8{letter-spacing:-0.02em;}</style><linearGradient id="linear-gradient" x1="-0.5" y1="850.5" x2="1920" y2="850.5" gradientUnits="userSpaceOnUse"><stop offset="0" stop-color="#ff7bac"/><stop offset="1" stop-color="#2e3192"/></linearGradient></defs><title>Untitled-3</title><path class="cls-1" d="M1920,1080.5a927.3,927.3,0,0,0-175.78-112c-144.7-70.62-350.57-123.06-1162.14-89-90.92,3.82-216.18,9.85-350.55-56C116.71,767.23,43,682-.5,620.5v460Z" transform="translate(1 -245.13)"/><path class="cls-2" d="M1888.5,1055.5" transform="translate(1 -245.13)"/><path class="cls-3" d="M275.9,284.77c15.48,40,23.91,62.94,26.09,69.84h.23c2.56-8.06,10-31.47,23.92-69.84h14.24l-28.57,77.5c-12.93,35.06-17.66,42.14-36,42.14a56.55,56.55,0,0,1-9.52-.85V390.08a61.29,61.29,0,0,0,8,.65c9.84,0,13.62-4.59,20.27-20.62l-33.79-85.34Z" transform="translate(1 -245.13)"/><path class="cls-3" d="M355,245.13h13.71v18.44H355Zm0,39.64h13.71v81.62H355Z" transform="translate(1 -245.13)"/><path class="cls-3" d="M406.46,323.81c7.75-7.82,28.88-28,40.21-39H464l-33.78,31.71,37.34,49.91H450.25l-30.1-41.17-13.69,12.22v28.95H392.75V245.13h13.71Z" transform="translate(1 -245.13)"/><path class="cls-3" d="M485.29,329.14c.77,15.67,10.2,27.15,25,27.15,11.39,0,17.69-5.21,21.61-13.13H545.6c-3.93,12.15-14.24,25.49-36.05,25.49-26.14,0-38-21.37-38-42.83,0-24.65,14.67-43.31,37.69-43.31,27.69,0,37.45,22.69,37.45,42.6,0,1.38,0,2.44,0,4Zm47.07-10.9c-.62-9.7-5.22-23.78-23.25-23.78-14.95,0-22.27,10.44-23.54,23.78Z" transform="translate(1 -245.13)"/><text x="1" y="-245.13"/><text class="cls-4" transform="translate(260.14 242.31) scale(0.98 1)">Complaints<tspan class="cls-5" x="300.12" y="0"> </tspan><tspan class="cls-6" x="308.52" y="0">T</tspan><tspan class="cls-7" x="339.82" y="0">racking</tspan><tspan class="cls-8" x="533.35" y="0"> </tspan><tspan x="544.54" y="0">System</tspan></text><text x="1" y="-245.13"/></svg>